<?xml version="1.0" encoding="utf-8"?>
<!-- Generator: Adobe Illustrator 24.1.0, SVG Export Plug-In . SVG Version: 6.00 Build 0)  -->
<svg version="1.1" id="Capa_1" xmlns="http://www.w3.org/2000/svg" xmlns:xlink="http://www.w3.org/1999/xlink" x="0px" y="0px"
	 viewBox="0 0 1125 2436" style="enable-background:new 0 0 1125 2436;" xml:space="preserve">
<style type="text/css">
	.st0{stroke:#000000;stroke-miterlimit:10;}
	.st1{fill:none;stroke:#000000;stroke-width:10;stroke-linecap:round;stroke-miterlimit:10;}
	.st2{fill:none;stroke:#000000;stroke-width:10;stroke-miterlimit:10;}
	.st3{fill:none;stroke:#000000;stroke-width:8;stroke-linecap:round;stroke-miterlimit:10;}
	.st4{fill:#FFFFFF;stroke:#000000;stroke-width:7;stroke-linecap:round;stroke-miterlimit:10;}
	.st5{fill:none;stroke:#000000;stroke-width:5;stroke-linecap:round;stroke-miterlimit:10;}
</style>
<g>
	<path class="st0" d="M636.98,812.92c-0.73-13.41-11.3-23.35-25.17-23.5c-10.5-0.11-21-0.02-31.51-0.03c-0.89,0-1.77-0.1-3.1-0.19
		c6.89-7.38,10.22-15.61,10.25-25.11c0.03-9.36,0.02-18.71,0-28.07c-0.01-3.88-1.89-6.18-4.99-6.19c-3.12-0.01-4.97,2.26-4.98,6.15
		c-0.01,9.09,0,18.18,0,27.27c-0.01,15.53-10.51,26.1-26.07,26.13c-18.81,0.04-33.3,0.19-52.1,0.18c-5.67,0.17-9.32,0.02-11.81,0
		c-1.82,0-1.87,0-2.72,0c-8.51-0.01-15.1,0.16-23.61,0c-3.97-0.08-7.83-0.09-11.81,0c-1.83,0.04-1.82,0-4.54,0
		c-0.2,0.01-2.6-0.27-2.78-0.28c-12.96-0.53-23.38-11.46-23.41-24.71c-0.05-24.09-0.02-48.19-0.01-72.28c0-0.67,0.11-1.35,0.16-1.99
		h54.41c0,1.6-0.01,3,0,4.41c0.1,8.48,6.02,14.88,14.46,15.17c6.96,0.24,13.95,0.25,20.91-0.01c8.3-0.32,14.19-6.71,14.32-15.04
		c0.02-1.54,0-3.08,0-4.58h54.58c0,1.08,0,2.03,0,2.98c0,7.06-0.03,14.12,0.01,21.18c0.02,3.77,2.83,6.11,6.18,5.31
		c2.37-0.57,3.75-2.57,3.77-5.68c0.03-7.85,0.01-15.7,0.01-23.94c2.87,0,5.41,0,7.96,0c5.6,0,7.52-2.2,6.75-7.7
		c-1.86-13.2-11.88-22.02-25.21-22.04c-34.07-0.03-68.13-0.01-102.2-0.01c-0.62,0-1.24-0.02-1.85,0.03
		c-2.61,0.22-4.45,2.08-4.57,4.6c-0.13,2.69,1.55,4.76,4.27,5.14c1.04,0.14,2.11,0.11,3.17,0.11c33.18,0.01,66.37,0,99.55,0.01
		c1.58,0,3.19,0.03,4.75,0.26c5.15,0.73,9.86,4.77,11.02,9.4H404.87c0.1-0.47,0.11-0.74,0.22-0.96c2.93-5.89,7.74-8.7,14.26-8.7
		c11.12,0,22.24,0.02,33.36-0.03c3.47-0.02,5.64-2.05,5.61-5c-0.03-2.87-2.16-4.85-5.44-4.86c-11.74-0.02-23.48-0.15-35.21,0.06
		c-12.77,0.23-23.23,10.67-23.86,23.45c-0.2,4.15,1.74,6.18,5.98,6.21c2.88,0.02,5.76,0,8.85,0v3.45c0,23.39,0,46.78,0,70.17
		c0,9,2.81,16.96,8.73,23.79c0.41,0.48,0.74,1.02,1.36,1.88c-1.61,0-2.75-0.01-3.89,0c-11.21,0.06-22.43-0.25-33.61,0.29
		c-11.41,0.55-20.97,10.45-21.99,21.8c-0.54,6,1.02,7.74,6.97,7.74c32.92,0,65.84,0,98.76,0h3.35c0,5.26-0.07,10.19,0.02,15.11
		c0.14,8.18,6.52,14.55,14.72,14.61c10.06,0.08,20.12,0.08,30.18,0c6.2-0.05,11.76-4.04,13.68-9.89c0.64-1.96,0.79-4.15,0.85-6.24
		c0.12-4.47,0.04-8.94,0.04-13.59h3.27c11.47,0,22.95,0,34.42,0c0.88,0,1.78,0.05,2.64-0.08c2.66-0.41,4.52-2.63,4.39-5.14
		c-0.13-2.57-2.11-4.53-4.82-4.73c-0.88-0.06-1.76-0.02-2.65-0.02c-63.99,0-127.97,0-191.96,0h-3.11c2.41-6.55,7.69-9.97,15.03-9.97
		c75.37-0.01,150.74,0,226.11,0c0.62,0,1.24-0.02,1.85,0.03c6.29,0.45,11.89,4.74,12.89,9.94c-12.55,0-25.08-0.01-37.61,0.01
		c-3.49,0-5.71,1.87-5.82,4.8c-0.11,2.98,2.23,5.13,5.76,5.16c5.74,0.04,11.47,0.01,17.21,0.01c2.18,0,4.37,0,6.7,0
		c0,10.94,0.19,56.65,0.19,67.86c0,0-0.05,0-0.14,0v14.43c0.29,7.46,0.73,14.95-1.49,22.24c-4.18,13.73-16.46,23.41-30.82,24.33
		c-3.69,0.24-7.41,0.16-11.11,0.16c-23.55,0.01-47.11,0.01-70.66,0.01c-26.11,0-52.23,0.03-78.34-0.01
		c-16.29-0.03-29.53-9.35-34.15-24.19c-1.01-3.24-1.46-6.72-1.67-10.13c-0.17-2.84-0.16-5.69-0.13-8.54c0-0.08-0.01-0.16-0.01-0.24
		v-20.82c-0.14,0.02-0.27,0.03-0.41,0.05c0.14-0.2,0.28-0.4,0.41-0.59v-16.09c0-0.26,0.02-0.5,0.06-0.74v-1.18
		c0-9.88,0-19.77,0-29.65c0-0.97,0.03-1.95-0.11-2.91c-0.36-2.41-2.36-4.05-4.81-4.05c-2.46,0-4.44,1.63-4.82,4.04
		c-0.12,0.78-0.1,1.58-0.1,2.38c0,25.68-0.01,51.37,0.01,77.05c0,2.38,0.03,4.79,0.41,7.12c3.73,22.97,21.8,38.37,45.12,38.38
		c52.34,0.04,104.67,0.03,157.01-0.03c3.33,0,6.74-0.21,9.98-0.91c21.25-4.55,35.51-22.27,35.58-44.28
		c0.09-30.01,0.02-60.02,0.03-90.02v-3.66c3.19,0,6.08,0.03,8.97-0.01C635.34,819.18,637.21,817.14,636.98,812.92z M483.19,690.24
		h29.69c0,1.86,0.11,3.61-0.03,5.34c-0.21,2.61-2.16,4.42-5.02,4.46c-6.52,0.09-13.05,0.1-19.57,0c-3.17-0.05-4.98-2.07-5.07-5.25
		C483.16,693.32,483.19,691.84,483.19,690.24z M478.23,819.46h39.64c0,5.07,0.1,9.92-0.04,14.77c-0.09,2.94-2.01,4.72-4.96,4.74
		c-9.88,0.06-19.76,0.06-29.64,0c-2.95-0.02-4.88-1.8-4.96-4.74C478.13,829.39,478.23,824.54,478.23,819.46z"/>
</g>
<g>
	<path d="M501.21,1172.95C494,1259,369,1262,359.39,1169.75c3.06,29.33-63.74-9.9-52.61-41.93c5.73-16.48,17.68-41.76,23.32-58.29
		c-29.58-9.13-16.1-35.53,0.42-36.35c11.97-0.59,25.43-4.33,36.46-9.5c11.57-8.46,26.04-13.07,39.62-17.72
		c1.73-0.59,3.51-7.83,4.07-9.67c3.69-24.21,13.85-48.55,41.54-48.44c28.62-0.37,57.25-0.41,85.87-0.02
		c64.52,5.61,30.57,89.98,29.71,131.36c1.56,30.73,40.05,42.68,65.98,36.44c16.43-3.62,29.89-18.6,29.95-35.46
		c0.14-37.33,0.23-74.67-0.18-111.99c-0.05-4.58-5.3-12.13-7.3-17.32c-10.62,0.96-33.24,7.15-32.1-1.09
		c1.37-9.91,22.2-8.25,30-10.71c2.27-8.56,1.62-23.46,9.88-28.23c18.43-8.53,38.58-14.77,59.13-11.71
		c25.28,3.32,23.53,48.5,15.67,66.34c-3.24,9.95-11.24,11.6-20.59,13.07c0,8.91,0.9,18.01-0.22,26.86
		c-1.55,12.16-0.29,24.84,10.22,30.98c10.07,5.87,17.02,11.64,26.58,18.4c3.9,2.76,6.73,8.14,6.59,13
		c-0.24,8.52-0.07,19.05-0.07,27.93c13.64,1.73,30.81,6.63,43.87,10.66c11.59,3.53,7.16,12.02,12.75,22.69
		C830,1152,836,1178,824.32,1205.6c-23.93,56.56-131.32,38.4-126.17-37.89c0.19-2.81-10.31-8.63-13.5-6.75
		c-12.41,7.31-24.99,10.9-39.11,10.86C599.74,1171.69,547.02,1172.91,501.21,1172.95z M674.71,972.82
		c-0.01,35.31,1.07,64.46,0.97,99.75c-0.05,18.12-1,31.17-15,42.79c-38.05,30.6-110.99,9.37-106.42-44.16
		c2.56-20.15,7.09-36.92,9.41-57.18C493.16,1017.5,377,988,343.27,1069.39c-9.2,22.2-18.84,36.92-26.6,59.83
		c-4.67,13.78,13.04,31.95,19.38,33.49c12.56-124.57,177.03-121.85,185.04-0.98c198.31,2.09,182.66,6.47,184.17-184.52
		C699.26,975.79,681.3,974.38,674.71,972.82z M510.5,1161.36c-15.5-122.36-155.79-96.64-162.55,0
		C401.58,1161.36,457.54,1161.36,510.5,1161.36z M562.46,1001.41c6.54-23.41-11.75-43.46-27.74-43.52
		c-26.08-0.1-50.58-0.04-76.66-0.02c-17.29,0.01-34.06,15.13-34.17,42.54C466.77,1000.41,519.65,1001.41,562.46,1001.41z
		 M700.49,1155.97c33.65,9.7,66.73-15.42,99.15-20.39c3.76-0.7,5.71-11.41,4.94-14.68c-3.05-10.14-19.89-9.34-28.59-11.75
		c-16.08-2.42-33.02-5.14-48.3,1.49c-6.76,2.93-14.76,9.63-16.95,17.79C708.57,1136.58,704.47,1147.94,700.49,1155.97z
		 M468.02,1173.96C462,1218,402,1219,392.53,1174.26c-1.03-4.87-14.43,0-18.87,0c2.7,75.04,115.63,71.36,115.93-0.03
		C484.78,1173.64,473.01,1174.08,468.02,1173.96z M797.54,1170.84c0.09-6.4-4.08-26.92-12.57-23.78
		c-13.2,5.19-30.5,11.14-43.88,15.83c-3.12,1.09-8.16,3.45-8.02,6.64C735,1212,798,1206,797.54,1170.84z M709.44,1170.32
		c-4.32,52.06,72.56,79.68,101.93,37.19c13.1-18.95,14.01-48.8,1.16-63.97c-2.65,1.24-11.33,0.49-14.01,1.75
		C834,1215,730,1234,722.9,1169C722.59,1166.13,712.39,1170.56,709.44,1170.32z M672,947c-1,20,55,25,59.73,7.84
		c2.69-9.75,3.34-20.35,0.5-30.11c-2.17-7.46-8.5-14.8-16.35-14.79c-12.08,0.02-26.24,3.04-37.42,7.04
		c-3.41,1.22-14.46,3.02-11.21,16.16c2.5,10.13,36.22-9.73,41.61,3.95C710,940,681.3,944.57,672,947z M715.58,1041.1
		c0,15.1-3,49.51-3,63.62c10.42-4.28,27.54-9.31,36.92-9.31c-0.83-6.86,1.03-26.41-2.77-31.21
		C738.3,1057.92,724.77,1047.78,715.58,1041.1z M406.93,1174.19c3.69,29.07,46,27.47,47.9,0
		C438.96,1174.19,423.1,1174.19,406.93,1174.19z M348.32,1039.14c-5.03,0-15.69,2.56-20.22,3.13c-9.03,0.79-7.77,15.41,0.87,17.67
		C334.7,1061.82,344.42,1043.47,348.32,1039.14z"/>
</g>
<circle cx="551.67" cy="841.31" r="7.88"/>
<circle cx="595.52" cy="841.31" r="7.88"/>
<path class="st1" d="M540,890c50.5,68.78,90.09,53.43,90.09,53.43"/>
<path class="st2" d="M620.99,874.43c54.98,14.08,66.96,40.74,61.49,34.05"/>
<polygon class="st0" points="434.79,948.1 558.04,948.08 572,949.03 571.06,958 420,958 "/>
<path class="st3" d="M562.67,860.18c0,0,3.01,9.04,12.06,9.04c9.04,0,11.45-9.04,11.45-9.04"/>
<path class="st4" d="M628.69,936.21c0,0,2.48-9.95,16.81-10.52c14.33-0.57,16.05,12.61,16.05,12.61s2.29,12.36-6.88,11.79
	c-7.44-0.46-3.46-9.39-9.17-8.94c-18.26,1.44-6.39,8.03-12.12,8.03C624.2,949.17,628.69,936.21,628.69,936.21z"/>
<circle cx="432.8" cy="712.29" r="4.75"/>
<circle cx="459.25" cy="712.29" r="4.75"/>
<path class="st5" d="M438.54,723.46c0,0,2.03,6.1,8.13,6.1s7.72-6.1,7.72-6.1"/>
</svg>
